<?xml version="1.0" encoding="UTF-8"?>
<svg width="127px" height="28px" viewBox="0 0 127 28" version="1.1" xmlns="http://www.w3.org/2000/svg" xmlns:xlink="http://www.w3.org/1999/xlink">
    <!-- Generator: Sketch 61.2 (89653) - https://sketch.com -->
    <title>Combined Shape</title>
    <desc>Created with Sketch.</desc>
    <g id="Page-1" stroke="none" stroke-width="1" fill="none" fill-rule="evenodd">
        <g id="Artboard-Copy-2" transform="translate(-260.000000, -157.000000)" fill="#000000">
            <path d="M327.75,159.43 L327.75,171.589 L386.75,171.59 L386.75,172.09 L327.75,172.089 L327.75,184.25 L327.25,184.25 L327.25,159.43 L327.75,159.43 Z M296.174,160.2 L304.538,184 L298.656,184 L297.228,179.41 L289.102,179.41 L287.674,184 L281.792,184 L290.122,160.2 L296.174,160.2 Z M322.082,160.2 L322.082,164.62 L315.384,164.62 L315.384,184 L310.216,184 L310.216,164.62 L303.518,164.62 L303.518,160.2 L322.082,160.2 Z M269.144,160.2 C270.458667,160.2 271.631667,160.296333 272.663,160.489 C273.694333,160.681667 274.703,161.044333 275.689,161.577 C276.675,162.109667 277.491,162.818 278.137,163.702 C278.783,164.586 279.304333,165.753333 279.701,167.204 C280.097667,168.654667 280.296,170.354667 280.296,172.304 C280.296,174.253333 280.097667,175.942 279.701,177.37 C279.304333,178.798 278.783,179.931333 278.137,180.77 C277.491,181.608667 276.669333,182.277333 275.672,182.776 C274.674667,183.274667 273.666,183.603333 272.646,183.762 C271.626,183.920667 270.447333,184 269.11,184 L260.202,184 L260.202,160.2 L269.144,160.2 Z M337.42,177.61 L337.42,178.96 C337.42,180.08 337.2,181.01 336.76,181.75 C336.3,182.51 335.57,183.13 334.56,183.6 L333.86,182.74 C334.74,182.32 335.36,181.82 335.74,181.26 C336.11,180.68 336.3,179.92 336.3,178.96 L336.3,177.61 L337.42,177.61 Z M358.74,175.35 L359.86,175.62 C359.48,176.95 359,178.14 358.42,179.18 C359.43,179.88 360.4,180.67 361.32,181.55 L360.55,182.36 C359.65,181.52 358.74,180.78 357.82,180.14 L357.7,180.3 C356.66,181.74 355.36,182.82 353.8,183.54 L353.08,182.68 C354.57,182 355.8,180.99 356.77,179.65 L356.87,179.51 C355.93,178.92 354.99,178.42 354.03,178.01 L354.54,177.04 C355.55,177.47 356.52,177.98 357.46,178.56 C357.96,177.63 358.39,176.56 358.74,175.35 Z M351.15,181.9 L351.15,182.93 L342.85,182.93 L342.85,181.9 L351.15,181.9 Z M340.7,175.84 L341.26,176.34 C340.88,177.1 340.51,177.73 340.16,178.23 C339.7,178.85 339.18,179.39 338.58,179.86 L337.78,179.09 C338.66,178.4 339.3,177.66 339.7,176.87 L333.14,176.87 L333.14,175.84 L340.7,175.84 Z M269.144,164.79 L265.37,164.79 L265.37,179.41 L269.11,179.41 C269.880667,179.41 270.532333,179.364667 271.065,179.274 C271.597667,179.183333 272.124667,178.990667 272.646,178.696 C273.167333,178.401333 273.586667,177.999 273.904,177.489 C274.221333,176.979 274.476333,176.287667 274.669,175.415 C274.861667,174.542333 274.958,173.505333 274.958,172.304 C274.958,170.785333 274.822,169.516 274.55,168.496 C274.278,167.476 273.864333,166.705333 273.309,166.184 C272.753667,165.662667 272.147333,165.3 271.49,165.096 C270.832667,164.892 270.050667,164.79 269.144,164.79 Z M350.46,176.5 L350.46,177.53 L343.54,177.53 L343.54,176.5 L350.46,176.5 Z M293.148,165.912 L290.326,175.126 L296.004,175.126 L293.148,165.912 Z M337.984,160.211 C338.743333,160.211 339.372333,160.420667 339.871,160.84 C340.369667,161.259333 340.619,161.928 340.619,162.846 L340.619,169 L338.392,169 L338.29,167.793 C337.802667,168.167 337.3975,168.456 337.0745,168.66 C336.7515,168.864 336.4455,169.011333 336.1565,169.102 C335.8675,169.192667 335.640833,169.2465 335.4765,169.2635 C335.312167,169.2805 335.048667,169.289 334.686,169.289 C334.21,169.289 333.833167,169.215333 333.5555,169.068 C333.277833,168.920667 333.056833,168.6345 332.8925,168.2095 C332.728167,167.7845 332.646,167.192333 332.646,166.433 C332.646,165.855 332.711167,165.373333 332.8415,164.988 C332.971833,164.602667 333.170167,164.313667 333.4365,164.121 C333.702833,163.928333 333.994667,163.795167 334.312,163.7215 C334.629333,163.647833 335.026,163.611 335.502,163.611 C336.068667,163.611 336.541833,163.633667 336.9215,163.679 C337.301167,163.724333 337.729,163.837667 338.205,164.019 L338.205,163.475 C338.205,162.953667 338.114333,162.588167 337.933,162.3785 C337.751667,162.168833 337.468333,162.064 337.083,162.064 C335.949667,162.064 334.929667,162.188667 334.023,162.438 L333.326,160.84 C333.802,160.692667 334.2525,160.573667 334.6775,160.483 C335.1025,160.392333 335.519,160.33 335.927,160.296 C336.335,160.262 336.675,160.239333 336.947,160.228 C337.219,160.216667 337.564667,160.211 337.984,160.211 Z M375.248,160.211 C375.86,160.211 376.387,160.2705 376.829,160.3895 C377.271,160.5085 377.676167,160.721 378.0445,161.027 C378.412833,161.333 378.6905,161.7835 378.8775,162.3785 C379.0645,162.9735 379.158,163.713 379.158,164.597 C379.158,164.710333 379.146667,164.908667 379.124,165.192 L373.633,165.192 C373.667,166.053333 373.8285,166.637 374.1175,166.943 C374.4065,167.249 374.834333,167.402 375.401,167.402 C376.160333,167.402 377.016,167.186667 377.968,166.756 L378.886,168.337 C377.866,168.971667 376.704333,169.289 375.401,169.289 C374.902333,169.289 374.454667,169.255 374.058,169.187 C373.661333,169.119 373.276,168.985833 372.902,168.7875 C372.528,168.589167 372.216333,168.322833 371.967,167.9885 C371.717667,167.654167 371.519333,167.215 371.372,166.671 C371.224667,166.127 371.151,165.486667 371.151,164.75 C371.151,164.013333 371.221833,163.373 371.3635,162.829 C371.505167,162.285 371.695,161.845833 371.933,161.5115 C372.171,161.177167 372.471333,160.910833 372.834,160.7125 C373.196667,160.514167 373.567833,160.381 373.9475,160.313 C374.327167,160.245 374.760667,160.211 375.248,160.211 Z M362.311,160.211 C363.331,160.211 363.954333,160.698333 364.181,161.673 C365.008333,161.027 365.640167,160.624667 366.0765,160.466 C366.512833,160.307333 367.037,160.228 367.649,160.228 C368.963667,160.228 369.621,160.987333 369.621,162.506 L369.621,169.017 L367.207,169.017 L367.207,163.322 C367.207,162.902667 367.141833,162.605167 367.0115,162.4295 C366.881167,162.253833 366.691333,162.166 366.442,162.166 C366.192667,162.166 366,162.180167 365.864,162.2085 C365.728,162.236833 365.526833,162.333167 365.2605,162.4975 C364.994167,162.661833 364.668333,162.919667 364.283,163.271 L364.283,169.017 L361.869,169.017 L361.869,163.305 C361.869,163.021667 361.835,162.792167 361.767,162.6165 C361.699,162.440833 361.611167,162.321833 361.5035,162.2595 C361.395833,162.197167 361.262667,162.166 361.104,162.166 C360.854667,162.166 360.659167,162.180167 360.5175,162.2085 C360.375833,162.236833 360.174667,162.333167 359.914,162.4975 C359.653333,162.661833 359.330333,162.919667 358.945,163.271 L358.945,169 L356.531,169 L356.531,160.5 L358.758,160.5 L358.843,161.656 C359.670333,161.01 360.302167,160.607667 360.7385,160.449 C361.174833,160.290333 361.699,160.211 362.311,160.211 Z M354.695,160.5 L354.695,169 L352.281,169 L352.281,160.5 L354.695,160.5 Z M348.3455,160.211 C348.985833,160.211 349.495833,160.3895 349.8755,160.7465 C350.255167,161.1035 350.445,161.684333 350.445,162.489 L350.445,169 L348.014,169 L348.014,163.305 C348.014,162.885667 347.946,162.591 347.81,162.421 C347.674,162.251 347.47,162.166 347.198,162.166 C346.914667,162.166 346.699333,162.180167 346.552,162.2085 C346.404667,162.236833 346.183667,162.338833 345.889,162.5145 C345.594333,162.690167 345.231667,162.970667 344.801,163.356 L344.801,169 L342.387,169 L342.387,160.5 L344.614,160.5 L344.699,161.656 C345.571667,161.01 346.2375,160.607667 346.6965,160.449 C347.1555,160.290333 347.705167,160.211 348.3455,160.211 Z M336.301,164.852 C335.859,164.852 335.553,164.937 335.383,165.107 C335.213,165.277 335.128,165.617 335.128,166.127 C335.128,166.410333 335.139333,166.637 335.162,166.807 C335.184667,166.977 335.23,167.107333 335.298,167.198 C335.366,167.288667 335.439667,167.351 335.519,167.385 C335.598333,167.419 335.711667,167.436 335.859,167.436 C336.119667,167.436 336.318,167.421833 336.454,167.3935 C336.59,167.365167 336.796833,167.266 337.0745,167.096 C337.352167,166.926 337.729,166.648333 338.205,166.263 L338.205,165.209 C337.944333,165.095667 337.695,165.0135 337.457,164.9625 C337.219,164.9115 337.037667,164.880333 336.913,164.869 C336.788333,164.857667 336.584333,164.852 336.301,164.852 Z M375.401,161.996 C375.151667,161.996 374.936333,162.0215 374.755,162.0725 C374.573667,162.1235 374.400833,162.217 374.2365,162.353 C374.072167,162.489 373.941833,162.687333 373.8455,162.948 C373.749167,163.208667 373.684,163.537333 373.65,163.934 L376.965,163.866 C376.953667,163.367333 376.877167,162.976333 376.7355,162.693 C376.593833,162.409667 376.421,162.222667 376.217,162.132 C376.013,162.041333 375.741,161.996 375.401,161.996 Z M354.763,157.134 L354.763,159.174 L352.196,159.174 L352.196,157.134 L354.763,157.134 Z" id="Combined-Shape"></path>
        </g>
    </g>
</svg>