<?xml version="1.0" encoding="UTF-8"?>
<svg width="127px" height="28px" viewBox="0 0 127 28" version="1.1" xmlns="http://www.w3.org/2000/svg" xmlns:xlink="http://www.w3.org/1999/xlink">
    <!-- Generator: Sketch 61.2 (89653) - https://sketch.com -->
    <title>Group</title>
    <desc>Created with Sketch.</desc>
    <g id="Page-1" stroke="none" stroke-width="1" fill="none" fill-rule="evenodd">
        <g id="Artboard-Copy-2" transform="translate(-260.000000, -113.000000)" fill="#FFFFFF">
            <g id="Group" transform="translate(260.000000, 113.000000)">
                <path d="M0.202,3.2 L9.144,3.2 C10.4586668,3.2 11.6316668,3.29633316 12.663,3.489 C13.6943332,3.68166684 14.703,4.04433316 15.689,4.577 C16.675,5.10966684 17.491,5.818 18.137,6.702 C18.783,7.586 19.3043332,8.75333316 19.701,10.204 C20.0976668,11.6546668 20.296,13.3546668 20.296,15.304 C20.296,17.2533332 20.0976668,18.942 19.701,20.37 C19.3043332,21.798 18.783,22.9313332 18.137,23.77 C17.491,24.6086668 16.6693332,25.2773332 15.672,25.776 C14.6746668,26.2746668 13.666,26.6033332 12.646,26.762 C11.626,26.9206668 10.4473332,27 9.11,27 L0.202,27 L0.202,3.2 Z M5.37,7.79 L5.37,22.41 L9.11,22.41 C9.88066684,22.41 10.5323332,22.3646668 11.065,22.274 C11.5976668,22.1833332 12.1246668,21.9906668 12.646,21.696 C13.1673332,21.4013332 13.5866668,20.999 13.904,20.489 C14.2213332,19.979 14.4763332,19.2876668 14.669,18.415 C14.8616668,17.5423332 14.958,16.5053332 14.958,15.304 C14.958,13.7853332 14.822,12.516 14.55,11.496 C14.278,10.476 13.8643332,9.70533316 13.309,9.184 C12.7536668,8.66266684 12.1473332,8.3 11.49,8.096 C10.8326668,7.892 10.0506668,7.79 9.144,7.79 L5.37,7.79 Z M44.538,27 L38.656,27 L37.228,22.41 L29.102,22.41 L27.674,27 L21.792,27 L30.122,3.2 L36.174,3.2 L44.538,27 Z M30.326,18.126 L36.004,18.126 L33.148,8.912 L30.326,18.126 Z M62.082,7.62 L55.384,7.62 L55.384,27 L50.216,27 L50.216,7.62 L43.518,7.62 L43.518,3.2 L62.082,3.2 L62.082,7.62 Z" id="DAT-Copy-5"></path>
                <path d="M0.202,3.2 L9.144,3.2 C10.4586668,3.2 11.6316668,3.29633316 12.663,3.489 C13.6943332,3.68166684 14.703,4.04433316 15.689,4.577 C16.675,5.10966684 17.491,5.818 18.137,6.702 C18.783,7.586 19.3043332,8.75333316 19.701,10.204 C20.0976668,11.6546668 20.296,13.3546668 20.296,15.304 C20.296,17.2533332 20.0976668,18.942 19.701,20.37 C19.3043332,21.798 18.783,22.9313332 18.137,23.77 C17.491,24.6086668 16.6693332,25.2773332 15.672,25.776 C14.6746668,26.2746668 13.666,26.6033332 12.646,26.762 C11.626,26.9206668 10.4473332,27 9.11,27 L0.202,27 L0.202,3.2 Z M5.37,7.79 L5.37,22.41 L9.11,22.41 C9.88066684,22.41 10.5323332,22.3646668 11.065,22.274 C11.5976668,22.1833332 12.1246668,21.9906668 12.646,21.696 C13.1673332,21.4013332 13.5866668,20.999 13.904,20.489 C14.2213332,19.979 14.4763332,19.2876668 14.669,18.415 C14.8616668,17.5423332 14.958,16.5053332 14.958,15.304 C14.958,13.7853332 14.822,12.516 14.55,11.496 C14.278,10.476 13.8643332,9.70533316 13.309,9.184 C12.7536668,8.66266684 12.1473332,8.3 11.49,8.096 C10.8326668,7.892 10.0506668,7.79 9.144,7.79 L5.37,7.79 Z M44.538,27 L38.656,27 L37.228,22.41 L29.102,22.41 L27.674,27 L21.792,27 L30.122,3.2 L36.174,3.2 L44.538,27 Z M30.326,18.126 L36.004,18.126 L33.148,8.912 L30.326,18.126 Z M62.082,7.62 L55.384,7.62 L55.384,27 L50.216,27 L50.216,7.62 L43.518,7.62 L43.518,3.2 L62.082,3.2 L62.082,7.62 Z" id="DAT-Copy-7"></path>
                <path d="M73.14,18.84 L80.7,18.84 L81.26,19.34 C80.88,20.1 80.51,20.73 80.16,21.23 C79.7,21.85 79.18,22.39 78.58,22.86 L77.78,22.09 C78.66,21.4 79.3,20.66 79.7,19.87 L73.14,19.87 L73.14,18.84 Z M76.3,20.61 L77.42,20.61 L77.42,21.96 C77.42,23.08 77.2,24.01 76.76,24.75 C76.3,25.51 75.57,26.13 74.56,26.6 L73.86,25.74 C74.74,25.32 75.36,24.82 75.74,24.26 C76.11,23.68 76.3,22.92 76.3,21.96 L76.3,20.61 Z M83.54,19.5 L90.46,19.5 L90.46,20.53 L83.54,20.53 L83.54,19.5 Z M82.85,24.9 L91.15,24.9 L91.15,25.93 L82.85,25.93 L82.85,24.9 Z M94.54,20.04 C95.55,20.47 96.52,20.98 97.46,21.56 C97.96,20.63 98.39,19.56 98.74,18.35 L99.86,18.62 C99.48,19.95 99,21.14 98.42,22.18 C99.43,22.88 100.4,23.67 101.32,24.55 L100.55,25.36 C99.65,24.52 98.74,23.78 97.82,23.14 L97.7,23.3 C96.66,24.74 95.36,25.82 93.8,26.54 L93.08,25.68 C94.57,25 95.8,23.99 96.77,22.65 L96.87,22.51 C95.93,21.92 94.99,21.42 94.03,21.01 L94.54,20.04 Z" id="アニメ-copy-6"></path>
                <path d="M77.984,3.211 C78.7433334,3.211 79.3723334,3.42066658 79.871,3.84 C80.3696666,4.25933342 80.619,4.928 80.619,5.846 L80.619,12 L78.392,12 L78.29,10.793 C77.8026666,11.167 77.3975,11.456 77.0745,11.66 C76.7515,11.864 76.4455,12.0113334 76.1565,12.102 C75.8675,12.1926666 75.6408334,12.2465 75.4765,12.2635 C75.3121666,12.2805 75.0486666,12.289 74.686,12.289 C74.21,12.289 73.8331666,12.2153334 73.5555,12.068 C73.2778334,11.9206666 73.0568334,11.6345 72.8925,11.2095 C72.7281666,10.7845 72.646,10.1923334 72.646,9.433 C72.646,8.855 72.7111666,8.37333342 72.8415,7.988 C72.9718334,7.60266658 73.1701666,7.31366658 73.4365,7.121 C73.7028334,6.92833342 73.9946666,6.79516658 74.312,6.7215 C74.6293334,6.64783342 75.026,6.611 75.502,6.611 C76.0686666,6.611 76.5418334,6.63366658 76.9215,6.679 C77.3011666,6.72433342 77.729,6.83766658 78.205,7.019 L78.205,6.475 C78.205,5.95366658 78.1143334,5.58816658 77.933,5.3785 C77.7516666,5.16883342 77.4683334,5.064 77.083,5.064 C75.9496666,5.064 74.9296666,5.18866658 74.023,5.438 L73.326,3.84 C73.802,3.69266658 74.2525,3.57366658 74.6775,3.483 C75.1025,3.39233342 75.519,3.33 75.927,3.296 C76.335,3.262 76.675,3.23933342 76.947,3.228 C77.219,3.21666658 77.5646666,3.211 77.984,3.211 Z M76.301,7.852 C75.859,7.852 75.553,7.937 75.383,8.107 C75.213,8.277 75.128,8.617 75.128,9.127 C75.128,9.41033342 75.1393334,9.637 75.162,9.807 C75.1846666,9.977 75.23,10.1073334 75.298,10.198 C75.366,10.2886666 75.4396666,10.351 75.519,10.385 C75.5983334,10.419 75.7116666,10.436 75.859,10.436 C76.1196666,10.436 76.318,10.4218334 76.454,10.3935 C76.59,10.3651666 76.7968334,10.266 77.0745,10.096 C77.3521666,9.926 77.729,9.64833342 78.205,9.263 L78.205,8.209 C77.9443334,8.09566658 77.695,8.0135 77.457,7.9625 C77.219,7.9115 77.0376666,7.88033342 76.913,7.869 C76.7883334,7.85766658 76.5843334,7.852 76.301,7.852 Z M88.3455,3.211 C88.9858334,3.211 89.4958334,3.3895 89.8755,3.7465 C90.2551666,4.1035 90.445,4.68433342 90.445,5.489 L90.445,12 L88.014,12 L88.014,6.305 C88.014,5.88566658 87.946,5.591 87.81,5.421 C87.674,5.251 87.47,5.166 87.198,5.166 C86.9146666,5.166 86.6993334,5.18016658 86.552,5.2085 C86.4046666,5.23683342 86.1836666,5.33883342 85.889,5.5145 C85.5943334,5.69016658 85.2316666,5.97066658 84.801,6.356 L84.801,12 L82.387,12 L82.387,3.5 L84.614,3.5 L84.699,4.656 C85.5716666,4.01 86.2375,3.60766658 86.6965,3.449 C87.1555,3.29033342 87.7051666,3.211 88.3455,3.211 Z M94.763,2.174 L92.196,2.174 L92.196,0.134 L94.763,0.134 L94.763,2.174 Z M94.695,12 L92.281,12 L92.281,3.5 L94.695,3.5 L94.695,12 Z M102.311,3.211 C103.331,3.211 103.954333,3.69833342 104.181,4.673 C105.008333,4.027 105.640167,3.62466658 106.0765,3.466 C106.512833,3.30733342 107.037,3.228 107.649,3.228 C108.963667,3.228 109.621,3.98733342 109.621,5.506 L109.621,12.017 L107.207,12.017 L107.207,6.322 C107.207,5.90266658 107.141833,5.60516658 107.0115,5.4295 C106.881167,5.25383342 106.691333,5.166 106.442,5.166 C106.192667,5.166 106,5.18016658 105.864,5.2085 C105.728,5.23683342 105.526833,5.33316658 105.2605,5.4975 C104.994167,5.66183342 104.668333,5.91966658 104.283,6.271 L104.283,12.017 L101.869,12.017 L101.869,6.305 C101.869,6.02166658 101.835,5.79216658 101.767,5.6165 C101.699,5.44083342 101.611167,5.32183342 101.5035,5.2595 C101.395833,5.19716658 101.262667,5.166 101.104,5.166 C100.854667,5.166 100.659167,5.18016658 100.5175,5.2085 C100.375833,5.23683342 100.174667,5.33316658 99.914,5.4975 C99.6533334,5.66183342 99.3303334,5.91966658 98.945,6.271 L98.945,12 L96.531,12 L96.531,3.5 L98.758,3.5 L98.843,4.656 C99.6703334,4.01 100.302167,3.60766658 100.7385,3.449 C101.174833,3.29033342 101.699,3.211 102.311,3.211 Z M115.248,3.211 C115.86,3.211 116.387,3.2705 116.829,3.3895 C117.271,3.5085 117.676167,3.721 118.0445,4.027 C118.412833,4.333 118.6905,4.7835 118.8775,5.3785 C119.0645,5.9735 119.158,6.713 119.158,7.597 C119.158,7.71033342 119.146667,7.90866658 119.124,8.192 L113.633,8.192 C113.667,9.05333342 113.8285,9.637 114.1175,9.943 C114.4065,10.249 114.834333,10.402 115.401,10.402 C116.160333,10.402 117.016,10.1866666 117.968,9.756 L118.886,11.337 C117.866,11.9716666 116.704333,12.289 115.401,12.289 C114.902333,12.289 114.454667,12.255 114.058,12.187 C113.661333,12.119 113.276,11.9858334 112.902,11.7875 C112.528,11.5891666 112.216333,11.3228334 111.967,10.9885 C111.717667,10.6541666 111.519333,10.215 111.372,9.671 C111.224667,9.127 111.151,8.48666658 111.151,7.75 C111.151,7.01333342 111.221833,6.373 111.3635,5.829 C111.505167,5.285 111.695,4.84583342 111.933,4.5115 C112.171,4.17716658 112.471333,3.91083342 112.834,3.7125 C113.196667,3.51416658 113.567833,3.381 113.9475,3.313 C114.327167,3.245 114.760667,3.211 115.248,3.211 Z M115.401,4.996 C115.151667,4.996 114.936333,5.0215 114.755,5.0725 C114.573667,5.1235 114.400833,5.217 114.2365,5.353 C114.072167,5.489 113.941833,5.68733342 113.8455,5.948 C113.749167,6.20866658 113.684,6.53733342 113.65,6.934 L116.965,6.866 C116.953667,6.36733342 116.877167,5.97633342 116.7355,5.693 C116.593833,5.40966658 116.421,5.22266658 116.217,5.132 C116.013,5.04133342 115.741,4.996 115.401,4.996 Z" id="anime-copy-4"></path>
                <polygon id="Line-Copy-3" fill-rule="nonzero" points="67.25 2.43 67.75 2.43 67.75 27.25 67.25 27.25"></polygon>
                <polygon id="Line-2-Copy" fill-rule="nonzero" points="67.75 15.09 67.75 14.59 126.75 14.59 126.75 15.09"></polygon>
            </g>
        </g>
    </g>
</svg>